<?xml version="1.0" encoding="UTF-8"?>
<svg id="Layer_2" data-name="Layer 2" xmlns="http://www.w3.org/2000/svg" viewBox="0 0 381.6 355.79">
  <defs>
    <style>
      .cls-1 {
        fill: #e20074;
      }
    </style>
  </defs>
  <g id="dragonLayer">
    <g id="dragonGroup">
      <g id="archGroup">
        <path class="cls-1" d="M372.12,183.36c-1.88-2.02-1.67-12.38-2.05-15.47-3.3-27.13-9.95-48.02-24.27-71.25-25.46-41.28-69.67-73.07-117.71-82.45-7.02-1.37-20.06-1.91-25.86-4.38-5.38-2.29-3.4-8.72,2.13-9.58,3.57-.55,12.18.81,16.15,1.38,82.88,11.89,148.65,80.31,159.6,162.96.55,4.18,1.52,10.3,1.5,14.34-.03,5.03-6.7,7.42-9.47,4.44Z"/>
        <path d="M68.95,58.03C34.15,91.26,16.62,125.67,10.62,173.7c-.32,2.58.31,4.86-.69,7.47C7.87,186.55.05,185.64,0,178.92c-.13-17.76,7.82-45.54,14.8-62C41.18,54.7,105.72,3.87,174.46.1c1.68-.09,7.73-.26,8.89.27,1.28.58,2.91,4.38,2.91,5.76-.02,2.51-2.21,3.75-4.32,4.33-5.32,1.46-13.9,1.37-19.82,2.26-35.13,5.28-67.58,20.88-93.17,45.31Z"/>
      </g>
      <g id="dragonGroup-2" data-name="dragonGroup">
        <path class="cls-1" d="M111.12,123.48l-.49-.96c.69-1.5,14.01-4.25,16.45-4.67,16.68-2.89,33.23-1.88,50.03-1.09.49-1.79-.89-2.52-2.4-3.12-10.11-4.02-24.14-3.24-34.82-4.05-.82-.06-1.59.05-2.13-.75-.59-1.39,20.28-4.41,21.84-4.55,4.82-.43,10.65.05,15.38-.46.72-.08,1.2-.04,1.64-.74-1.99-3.23-5.53-4.93-7.87-7.96-3.83-4.99-5.5-11.59-3.9-17.74.21-.83,1.44-4.86,2.24-2.68.49,1.34.3,2.8.64,4.16,5.78,23.32,33.47,18.66,51.73,22.67,10.26,2.25,21.23,6.68,29.41,13.31.51-.82-.95-2.31-1.44-2.88-8.12-9.57-17.89-14.67-30.08-17.44-5.77-1.31-20.89-2.44-24.66-6.54-.43-.47-.88-.68-.7-1.45.48-.42,7.92.91,9.34.98,7.49.38,15.39-1.2,23-.44,5.42.54,11.06,3.4,16.14,5.22,1.3-1.4-5.24-7.07-6.24-8.4-2.19-2.93-4.51-7.4-4.75-11.09-.17-2.62,2.12.13,2.83,1.01.66.82.92,1.82,1.67,2.65,9.99,11.17,24.41,12.83,37.69,18.22-.29-4.85-6.3-7.03-9.37-10.07-.49-.49-2.19-2.12-.5-1.91,7.92.97,15.81,5.16,22.58,9.1.87-.66.6-.58.39-1.33-1.02-3.64-11.95-10.25-15.25-13.08-10.94-9.39-24.21-26.43-27.57-40.59-.74-3.11-1.83-6.83-.28-9.8,2.5,6.04,4.68,11.68,8.2,17.24,11.42,17.98,30.06,29.57,44.6,44.68,1.21.18.72-.81.49-1.45-1.29-3.58-4.07-7.21-5.62-10.7-2.28-5.16-4.29-13.22-3.27-18.8.15-.82.51-1.35,1.43-1.2,2.09,14.58,11.17,26.55,18.63,38.73,5.68,9.27,7.03,16.24,17.43,21.45,6.95,3.48,20.54,5.12,15.71,16.31-.64,1.47-6.62,9.5-8.09,7.99.33-12.72-9.45-.57-15.36-.96.69-2.31,4.04-2.1,4.32-5.08.48-5.07-8.44-3.85-11.52-3.56-.33-1.54,1.93-1,1.94-2.64,0-1.93-5.49-3.15-6.95-3.13-3.81.05-7.37,3.19-11.3,2.89.76-1.87,3.71-2,3.36-4.31-4.35-.2-9.53-.3-13.55-2.05-1.82-.79-3.65-3.2-6.13-2.75.17,3.06,3.74,19.32,6.08,20.1,1.99.66,3.96-1.81,4.48-1.37-2.62,4.05-4.95,3.97-2.82,9.3.74,1.85,1.77,3.56,4.02,3.58.92,0,4.4-1.78,4.09-.16-4.64,8.51-15.58,11.76-24.49,8.39.97-1.36,8.73-1.79,6.68-4.76-.86-1.24-12.21-.52-12.92-5.08,1.67-.2,2.42.95,4.34.53,4.12-.89,1.39-5.39-.1-7.65-2.76-4.2-8.47-7.84-11.92-11.6,1.81-1.06,8.75,3.93,9.12,3.6-4.68-9.76-18.31-14.09-26.35-5.46-6.5,6.97-1.89,16.51,3.06,22.76,1.09,1.38,3.3,2.35,3.12,4.31l-16.13-3.3c-34.89-3.49-68.46,5.12-94.97,28.28-39.41,34.43-55.81,94.27-24.26,139.43-.19.58-1.01.15-1.41-.03-6.63-3.05-21.07-19.47-25.67-25.69-8.51-11.5-13.94-24.77-19.94-37.66-1.89-1.22-3.54,3.74-4,5.16-.57,1.75-.6,3.73-1.25,5.48-.24.66.17.82-1,.67-1.37-5.32-3.05-10.67-3.78-16.14-.64-4.82-.65-9.6-.54-14.34.04-2-.02-4,0-5.99-1.03-1.06-3.73,2.97-4.23,3.69-1.69,2.45-2.79,5.22-4.17,7.83-1.67-.78-1.35-10.27-1.22-12.26,2.09-32.8,30.76-62.61,57.18-79.14,4.76-2.98,10.66-5.47,15.09-8.43,3.78-2.52,1.91-3.35-1.82-2.78-25.11,3.89-54.52,30.75-66.57,52.46l-1.93.7c-3.45-19.82.19-40.69,8.62-58.81-.59-.79-.63-.65-1.44-.51-1.93.35-4.27,2.13-5.97,2.21-1.02.04-.85-.36-.71-1.19.3-1.7,3.19-6.47,4.22-8.27,6.3-11.04,15.04-21.26,24.31-29.93,2.23-2.09,10.52-8.14,11.53-10.07.26-.49.3-.9.24-1.44l-10.56,2.87c19.1-20.37,44.3-34.76,71.42-41.61,2.64-.67,14.28-2.45,15.45-3.27,1.01-.71.21-1.36-.45-1.94-1.58-1.37-4.46-1.47-5.79-2.38-.74-.51-.02-1.2.24-1.2h20.16c1.21,0,4.39.9,4.97,2.23l8.71,18.89c-23.42,1.44-43.99,8.27-62.36,22.84-15.76,12.5-25.54,28.94-31.71,47.97-6.27,4.53-13.75,7.79-18.24,14.4-.11.84-.02.73.72.73,2.93,0,18.25-8.43,22.46-10.19,7.03-2.92,14.37-5.1,21.72-7.08,1.89-.51,10.37-2.01,11.02-2.9.44-.59.26-.8-.24-1.22-.75.05-2.21-.71-2.65-.71h-16.32ZM276.48,102.84c1.13-.97-5.01-4.33-5.75-4.56-2.13-.67-4.97-.73-7.2-.71-.24,1.28.28.83.96,1.17,2.08,1.02,7.46,3.28,9.58,3.88.81.23,1.58.31,2.41.22ZM300,103.32c-1.22,2.66,6.89,11.16,8.65,9.87,2.38-5.69-3.5-9.93-8.65-9.87ZM330.24,127.8c4.6.7,4.64-5.01,0-4.32v4.32Z"/>
        <path d="M255.73,71.25l.11,1.34c-8.63-3.15-17.25-6.8-26.31-8.97-10.44-2.5-19.72-2.67-30.09-3.99-3.08-.39-3.08-1.28-4.49-3.67-.89-1.51-6.46-13.08-6.29-13.82l1.13-.73c24.45,4.01,47.26,13.49,65.94,29.83Z"/>
      </g>
      <g id="phoenixGroup">
        <path d="M290.4,186.84c-1.05.96-2.36-4.38-3.03-5.13-3.45-3.84-4.91,5.95-6.21,8.13-2.18,3.65-2.13-1.19-2.82-2.94-1.77-1.13-8.86,1.74-10.66,2.89-5.2,3.35-2.63,9.22,3.2,8.49,4.01-7.46,3.79,3.52,7.77,3.42,2.54-.78,2.63-4.02,3.54-6.04.19-.43.19-1.46,1-.67.32.32,2.49,7.58,2.67,8.61.74,4.02.71,7.19-1.14,10.91-3.36,6.79-4.74,1.47-8.88-.9-6.73-3.85-14.59-2.38-21.44.34-10.39,4.12-16.58,14.84-17.29,25.67,4.13-.61,8.11-2.24,12.3-2.82,9.96-1.39,21.73-.46,31.4-3.16,16.96-4.73,14.65-30.16,36.66-27.57.85.1,2.07.25,1.72,1.38-5.6.95-14.13,4.98-15.63,11.03-.16.64-.17,1.29.53,1.46.58.14,8.96-2.86,10.67-3.22,2.79-.58,8.71-1.56,11.41-1.6.54,0,1.11-.01,1.45.48,2.64,51.36-30.72,96.91-76.75,116.75-15.62,6.73-36.76,12.46-53.72,8.91-24.06-5.03-26.61-30.24-5.34-41.04,49.21,17.16,101.84-9.71,121.36-56.77,2.5-6.03,5.06-12.71,5.27-19.19-11.24-.83-17,8.37-24.74,14.12-13.49,10.02-31.75,15.02-46.36,23.24-12.12,6.82-22.27,18.25-36.64,20.24l2.41-7.43c.03-.78-2.21.14-2.59.29-32.81,13.05-61.17,52.9-19.34,75.86l10.4,4.71c-1.87,1.03-3.37.06-5.04,0-40.5-1.29-81.71-23.33-92.26-64.7-12.15-47.65,11.93-93.82,57.48-111.21,12.04-4.6,33.51-8.9,46.31-8.8,1.22,0,2.69.71,4.08.39-4.55,3.53-10.54,3.99-15.85,6.47-17.24,8.03-36.6,24.51-46.75,40.61-1.05,1.66-5.37,10.36-6.03,10.77-.82.52-1,.05-1.36-.59-.55-.97-1.72-6.1-2.06-6.34-1.6-.39-3.07,1.12-4.28,2.11-6.18,5.04-13.23,15.45-13.91,23.53-1.68,20.09,20.52,33.02,38.39,29.03.15-.15-.28-.59-.48-.71-1.29-.85-7.88-1.6-10.19-2.29-11.85-3.57-24.03-13.58-21.86-27.35.18-1.12,4.21-10.63,5.64-8.99-.37,3.31-1.6,5.3.21,8.67,3.58,6.71,22.27,3.83,26.92-1.48l-.49-.96c-4.23.59-9.2,1.9-13.46,1.47-.97-.1-2.67-.23-2.54-1.63.28-3.11,18.42-16.36,22.97-16.17-1-3.15-5.32-2.74-7.92-3.36-.73-.17-.84.33-.72-.94,6.17-2.89,13.05-2.91,19.68-3.85.92-.99-5.08-4.23-5.75-4.57-1.58-.81-3.74-1.25-5.16-2.04-.54-.3-.82.03-.61-1.06,8.77-4.93,17.03,2.58,25.32,3.71,5.31.72,12.5.23,17.39-2.04.8-.37,7.79-5.01,6.72-6-5.59,1.81-10.89,4.5-16.98,3.78-.94-.11-2.77-.34-3.17-1.38,9.2-1.91,19.14-5.41,27.53-9.68.99-.51,2.83-.97,2.71-2.33-1.51-1.62-12.41,2.93-14.88,3.6-6.51,1.77-13.4,2.99-20.16,2.4,2.16-2.07,5.26-3.14,7.64-4.84,5-3.57,9.26-8.18,14.67-11.25,4.55-2.58,9.79-3.6,14.15-6.48-1.39-.68-11.95-8.4-10.55-9.84,3.09,1.46,5.86,3.39,9.41,3.78,12.22,1.37,16.26-10.65,31.31-7.31,3.31.73,7.99,3.48,10.9,3.54,4.94.11,10.43-4.63,14.75-3.74,6.57,1.35,8.83,14.03,7.06,19.57ZM253.81,174.96c-2.14.31-10.43,3.51-5.47,5.14,2.66-1.42,9.99-1.13,12.02-2.43,1.22-.78.5-2.41-.52-2.76s-4.78-.13-6.04.05Z"/>
        <path d="M257.28,263.16c.87.84-5.78,11.61-6.81,13.11-7.05,10.31-20.49,22.85-33.62,23.54-.73.04-1.17.58-1.81-.42,3.16-2.11,6.31-4.11,8.88-6.95,5.34-5.88,7.72-13.79,13.67-18.97,3.51-3.06,13.39-8.81,17.75-10.09.65-.19,1.26-.32,1.93-.22Z"/>
        <path d="M318.23,173.4c4.84,9.55,8.78,20.34,8.65,31.2h-4.32c-.59-10.48-2.51-20.86-5.29-30.96l.96-.24Z"/>
      </g>
    </g>
  </g>
</svg>
